<?xml version="1.0" encoding="UTF-8"?>
<svg xmlns="http://www.w3.org/2000/svg" xmlns:xlink="http://www.w3.org/1999/xlink" viewBox="0 0 240 240" width="240px" height="240px">
<g id="surface34101383">
<path style=" stroke:none;fill-rule:nonzero;fill:rgb(18.82353%,86.274511%,50.196081%);fill-opacity:1;" d="M 120 70.441406 C 57.136719 70.441406 5.539062 118.578125 0 180 L 240 180 C 234.460938 118.578125 182.863281 70.441406 120 70.441406 Z M 165.894531 135.394531 C 165.894531 129.875 170.371094 125.398438 175.890625 125.398438 C 181.410156 125.398438 185.886719 129.875 185.886719 135.394531 C 185.886719 140.914062 181.410156 145.390625 175.890625 145.390625 C 170.371094 145.390625 165.894531 140.914062 165.894531 135.394531 Z M 64.109375 145.390625 C 58.589844 145.390625 54.113281 140.914062 54.113281 135.394531 C 54.113281 129.875 58.589844 125.398438 64.109375 125.398438 C 69.628906 125.398438 74.105469 129.875 74.105469 135.394531 C 74.105469 140.914062 69.628906 145.390625 64.109375 145.390625 Z M 64.109375 145.390625 "/>
<path style=" stroke:none;fill-rule:nonzero;fill:rgb(18.82353%,86.274511%,50.196081%);fill-opacity:1;" d="M 170.191406 96.566406 C 169.488281 96.566406 168.785156 96.390625 168.140625 96.015625 C 166.175781 94.878906 165.503906 92.371094 166.636719 90.40625 L 192.621094 45.363281 C 193.753906 43.394531 196.265625 42.71875 198.230469 43.859375 C 200.195312 44.996094 200.863281 47.503906 199.734375 49.46875 L 173.75 94.511719 C 172.988281 95.828125 171.609375 96.566406 170.191406 96.566406 Z M 170.191406 96.566406 "/>
<path style=" stroke:none;fill-rule:nonzero;fill:rgb(18.82353%,86.274511%,50.196081%);fill-opacity:1;" d="M 69.808594 96.566406 C 68.390625 96.566406 67.011719 95.824219 66.25 94.511719 L 40.269531 49.46875 C 39.136719 47.503906 39.808594 44.996094 41.769531 43.859375 C 43.730469 42.71875 46.246094 43.394531 47.378906 45.363281 L 73.363281 90.40625 C 74.5 92.375 73.824219 94.886719 71.859375 96.015625 C 71.214844 96.390625 70.511719 96.566406 69.808594 96.566406 Z M 69.808594 96.566406 "/>
</g>
</svg>
