<?xml version="1.0" encoding="UTF-8"?>
<svg xmlns="http://www.w3.org/2000/svg" xmlns:xlink="http://www.w3.org/1999/xlink" viewBox="0 0 120 120" width="120px" height="120px">
<g id="surface34128483">
<path style=" stroke:none;fill-rule:nonzero;fill:rgb(100%,100%,100%);fill-opacity:1;" d="M 102.261719 39.140625 C 101.769531 39.449219 90.054688 45.949219 90.054688 60.359375 C 90.609375 76.796875 104.835938 82.558594 105.078125 82.558594 C 104.835938 82.867188 102.933594 90.410156 97.292969 98.320312 C 92.816406 105.132812 87.847656 112 80.304688 112 C 73.128906 112 70.550781 107.460938 62.273438 107.460938 C 53.378906 107.460938 50.863281 112 44.054688 112 C 36.511719 112 31.175781 104.765625 26.457031 98.015625 C 20.324219 89.183594 15.113281 75.324219 14.929688 62.015625 C 14.804688 54.964844 16.15625 48.03125 19.589844 42.144531 C 24.433594 33.925781 33.078125 28.34375 42.523438 28.160156 C 49.761719 27.914062 56.199219 33.128906 60.617188 33.128906 C 64.847656 33.128906 72.761719 28.160156 81.710938 28.160156 C 85.574219 28.164062 95.878906 29.328125 102.261719 39.140625 Z M 60.003906 26.753906 C 58.714844 20.3125 62.273438 13.871094 65.585938 9.765625 C 69.816406 4.796875 76.5 1.425781 82.265625 1.425781 C 82.632812 7.863281 80.300781 14.179688 76.132812 18.78125 C 72.390625 23.746094 65.953125 27.488281 60.003906 26.753906 Z M 60.003906 26.753906 "/>
</g>
</svg>
