<svg fill="#ffffff" xmlns="http://www.w3.org/2000/svg"  viewBox="0 0 48 48" width="144px" height="144px"><path fill="none" stroke="#ffffff" stroke-miterlimit="10" stroke-width="3" d="M16.5,41.5h15c5.522,0,10-4.478,10-10v-15	c0-5.523-4.478-10-10-10h-15c-5.523,0-10,4.477-10,10v15C6.5,37.022,10.977,41.5,16.5,41.5z"/><path fill="none" stroke="#ffffff" stroke-miterlimit="10" stroke-width="3" d="M24,15.5c-4.694,0-8.5,3.806-8.5,8.5	s3.806,8.5,8.5,8.5s8.5-3.806,8.5-8.5S28.694,15.5,24,15.5z"/><path d="M34,12c-1.105,0-2,0.895-2,2s0.895,2,2,2s2-0.895,2-2S35.105,12,34,12z"/></svg>