<?xml version="1.0" encoding="UTF-8"?>
<svg xmlns="http://www.w3.org/2000/svg" xmlns:xlink="http://www.w3.org/1999/xlink" viewBox="0 0 150 150" width="150px" height="150px">
<g id="surface34134305">
<path style=" stroke:none;fill-rule:nonzero;fill:white;fill-opacity:0.4;" d="M 75 9 C 38.550781 9 9 38.550781 9 75 C 9 111.449219 38.550781 141 75 141 C 111.449219 141 141 111.449219 141 75 C 141 38.550781 111.449219 9 75 9 Z M 75 33 C 98.160156 33 117 51.839844 117 75 C 117 98.160156 98.160156 117 75 117 C 51.839844 117 33 98.160156 33 75 C 33 51.839844 51.839844 33 75 33 Z M 75 39 C 55.148438 39 39 55.148438 39 75 C 39 94.851562 55.148438 111 75 111 C 94.851562 111 111 94.851562 111 75 C 111 55.148438 94.851562 39 75 39 Z M 66.058594 55.507812 C 66.582031 55.515625 67.101562 55.65625 67.566406 55.941406 L 94.566406 72.441406 C 95.453125 72.984375 96 73.953125 96 75 C 96 76.046875 95.457031 77.015625 94.566406 77.5625 L 67.566406 94.0625 C 67.085938 94.351562 66.542969 94.5 66 94.5 C 65.496094 94.5 64.992188 94.367188 64.535156 94.113281 C 63.585938 93.582031 63 92.582031 63 91.5 L 63 58.5 C 63 57.417969 63.585938 56.417969 64.535156 55.886719 C 65.011719 55.621094 65.535156 55.496094 66.058594 55.507812 Z M 66.058594 55.507812 "/>
</g>
</svg>
