<?xml version="1.0" encoding="UTF-8"?>
<svg xmlns="http://www.w3.org/2000/svg" xmlns:xlink="http://www.w3.org/1999/xlink" viewBox="0 0 144 144" width="144px" height="144px">
<g id="surface34127318">
<path style=" stroke:none;fill-rule:nonzero;fill:rgb(100%,100%,100%);fill-opacity:1;" d="M 129.601562 101.699219 C 128.398438 108 123.300781 112.800781 117 113.699219 C 107.101562 115.199219 90.601562 117 72 117 C 53.699219 117 37.199219 115.199219 27 113.699219 C 20.699219 112.800781 15.601562 108 14.398438 101.699219 C 13.199219 94.800781 12 84.601562 12 72 C 12 59.398438 13.199219 49.199219 14.398438 42.300781 C 15.601562 36 20.699219 31.199219 27 30.300781 C 36.898438 28.800781 53.398438 27 72 27 C 90.601562 27 106.800781 28.800781 117 30.300781 C 123.300781 31.199219 128.398438 36 129.601562 42.300781 C 130.800781 49.199219 132.300781 59.398438 132.300781 72 C 132 84.601562 130.800781 94.800781 129.601562 101.699219 Z M 129.601562 101.699219 "/>
<path style=" stroke:none;fill-rule:nonzero;fill:rgb(0,0,0);fill-opacity:1;" d="M 60 93 L 60 51 L 96 72 Z M 60 93 "/>
</g>
</svg>
